<svg xmlns="http://www.w3.org/2000/svg" xmlns:xlink="http://www.w3.org/1999/xlink" viewBox="0 0 417.6 131.2"><defs><path id="a" d="M211.7.2v47.2L181.1.2h-28.3v61.3L131.5.2H118l10 13h-23.6l9.4-11.8.8-1.2h-13.8L82 52.1S84.4 4.9 41.9 2.6H1.8L.6 1.3v94.4h40.1s20.1-1.2 31.8-15.3l-4.7 14.2h28.3l4.7-14.2h28.3l4.7 14.2h44.8V49.7l33 44.8h25.9V.2h-25.8zm-159.2 53s0 7.1-7.1 11.8c0 0-4.7 4.7-16.5 4.7V27.3H36s16.5 2.4 16.5 18.9v7zm56.6 2.4l7.1-14.2 7.1 14.2h-14.2z"/></defs><use xlink:href="#a" overflow="visible" fill="#0f6c32"/><defs><path id="b" d="M408.7 13.1h-11.8l8.3-13h-16.5v16.5S384 4.8 367.5.1h-118v28.3h21.2v66.1h25.9v-66h21.2v66.1h25.9V70.9l18.9 23.6H417V4.9l-8.3 8.2zm-54.2 30.7H345V24.9h7.1s7.1 2.4 7.1 11.8c0 0 0 4.7-4.7 7.1zm35.3 40.1l-16.5-23.6s7.1-2.4 16.5-16.5v40.1z"/></defs><use xlink:href="#b" overflow="visible" fill="#0f6c32"/></svg>